<?xml version="1.0" encoding="utf-8"?>
<!-- Generator: Adobe Illustrator 24.0.0, SVG Export Plug-In . SVG Version: 6.00 Build 0)  -->
<svg version="1.1" id="Layer_1" xmlns="http://www.w3.org/2000/svg" xmlns:xlink="http://www.w3.org/1999/xlink" x="0px" y="0px"
	 viewBox="0 0 24 24" style="enable-background:new 0 0 24 24;" xml:space="preserve">
<style type="text/css">
	.st0{fill:#F2F2EA;}
</style>
<path class="st0" d="M9.7,7.7c-0.9,0-1.6,0.7-1.6,1.5s0.7,1.5,1.6,1.5s1.6-0.7,1.6-1.5C11.4,8.3,10.6,7.7,9.7,7.7z M9.7,10
	c-0.6,0-1-0.4-1-0.9s0.5-0.9,1-0.9c0.6,0,1,0.4,1,0.9S10.3,10,9.7,10z M14.4,7.8c-0.9,0-1.6,0.7-1.6,1.5s0.7,1.5,1.6,1.5
	S16,10,16,9.2S15.3,7.8,14.4,7.8z M14.4,10.1c-0.6,0-1-0.4-1-0.9s0.5-0.9,1-0.9c0.6,0,1,0.4,1,0.9S14.9,10.1,14.4,10.1z M11.1,11.6
	c1.1,0.3,1.2,1.4,1.2,1.4l0.3-1.8l-0.9-0.3L11.1,11.6z M0,0v24h24V0H0z M21.6,11.4c0,0-1.3,1.6-4.4,2.2v0.7c0,2.8-2.3,5.2-5.2,5.2
	l0,0c-2.8,0-5.2-2.3-5.2-5.2v-0.7c-3.2-0.6-4.5-2.2-4.5-2.2s0-0.3,0.2-0.5C1.7,10.1,0.8,9,0.8,8.8C0.9,8.5,4,8.5,6.9,10.3V4.6
	C6.9,4.6,7.6,6,12,6s5.2-1.5,5.2-1.5v5.7c2.9-1.8,5.9-1.8,6-1.4c0,0.2-0.9,1.3-1.8,2.1C21.6,11.1,21.6,11.4,21.6,11.4z"/>
</svg>
