<?xml version="1.0" encoding="utf-8"?>
<!-- Generator: Adobe Illustrator 24.0.0, SVG Export Plug-In . SVG Version: 6.00 Build 0)  -->
<svg version="1.1" id="Layer_1" xmlns="http://www.w3.org/2000/svg" xmlns:xlink="http://www.w3.org/1999/xlink" x="0px" y="0px"
	 viewBox="0 0 24 24" style="enable-background:new 0 0 24 24;" xml:space="preserve">
<style type="text/css">
	.st0{fill:#9E50FC;}
	.st1{fill:#011F3D;}
</style>
<g>
	<path class="st0" d="M17.32,13.44l-1.45-0.55c0.23-0.59,0.34-1.21,0.34-1.85c0-1.38-0.54-2.68-1.52-3.66
		c-0.98-0.98-2.28-1.52-3.66-1.52c0,0,0,0,0,0c-2.09,0-3.96,1.24-4.77,3.17l-1.43-0.6c1.05-2.5,3.49-4.11,6.2-4.11c0,0,0,0,0,0
		c1.8,0,3.48,0.7,4.75,1.97c1.27,1.27,1.97,2.96,1.97,4.76C17.76,11.86,17.61,12.67,17.32,13.44z"/>
	<path class="st1" d="M5.08,19.9c-1.33,0-2.58-0.52-3.53-1.46c-0.94-0.94-1.46-2.19-1.46-3.53c0-1.33,0.52-2.59,1.46-3.53
		c0.94-0.94,2.19-1.46,3.53-1.46c0,0,0,0,0,0c2.75,0,4.99,2.24,4.99,4.99l-1.55,0c0-1.9-1.54-3.44-3.44-3.44c0,0,0,0,0,0
		c-0.92,0-1.78,0.36-2.43,1.01C2,13.13,1.64,13.99,1.64,14.91c0,0.92,0.36,1.78,1.01,2.43c0.65,0.65,1.51,1.01,2.43,1.01
		c0,0,0,0,0,0l13.05-0.01c1.15,0,2.24-0.45,3.06-1.27c0.82-0.82,1.26-1.9,1.26-3.06c0-2.14-1.6-3.98-3.72-4.28l0.21-1.53
		c2.88,0.4,5.05,2.9,5.05,5.81c0,1.57-0.61,3.04-1.72,4.15c-1.11,1.11-2.58,1.72-4.15,1.72L5.08,19.9C5.08,19.9,5.08,19.9,5.08,19.9
		z"/>
</g>
</svg>
